<svg xmlns="http://www.w3.org/2000/svg" xmlns:xlink="http://www.w3.org/1999/xlink" width="1923" height="900" viewBox="0 0 1923 900"><defs><style>.a{fill:url(#a);}.b{fill:url(#b);}.c,.d{opacity:0.88;}.c{clip-path:url(#c);}.e,.f,.g{fill:#fff;isolation:isolate;}.e{opacity:0.15;}.f{opacity:0.05;}.g{opacity:0.248;}</style><linearGradient id="a" x1="0.5" x2="0.5" y2="1.547" gradientUnits="objectBoundingBox"><stop offset="0" stop-color="#025d86"/><stop offset="1" stop-color="#00afcc" stop-opacity="0"/></linearGradient><linearGradient id="b" x1="0.571" y1="0.575" x2="0.565" y2="0.011" gradientUnits="objectBoundingBox"><stop offset="0" stop-color="#007e9c"/><stop offset="1" stop-color="#00afcc"/></linearGradient><clipPath id="c"><rect class="a" width="1923" height="900" transform="translate(-1 1524)"/></clipPath></defs><rect class="b" width="1920" height="900" transform="translate(1921 900) rotate(180)"/><g class="c" transform="translate(1 -1524)"><g class="d" transform="translate(0 18)"><g transform="translate(-237 1485.5)"><path class="e" d="M357,63v69.333L297,167V97.667L357,63Z"/><path class="f" d="M237,63l60,34.667V167l-60-34.667V63Z"/><path class="g" d="M357,62.9,297,97.5,237,62.9l60-34.4Z"/></g><g transform="translate(483 1485.5)"><path class="e" d="M357,63v69.333L297,167V97.667L357,63Z"/><path class="f" d="M237,63l60,34.667V167l-60-34.667V63Z"/><path class="g" d="M357,62.9,297,97.5,237,62.9l60-34.4Z"/></g><g transform="translate(-117 1485.5)"><path class="e" d="M357,63v69.333L297,167V97.667L357,63Z"/><path class="f" d="M237,63l60,34.667V167l-60-34.667V63Z"/><path class="g" d="M357,62.9,297,97.5,237,62.9l60-34.4Z"/></g><g transform="translate(603 1485.5)"><path class="e" d="M357,63v69.333L297,167V97.667L357,63Z"/><path class="f" d="M237,63l60,34.667V167l-60-34.667V63Z"/><path class="g" d="M357,62.9,297,97.5,237,62.9l60-34.4Z"/></g><g transform="translate(3 1485.5)"><path class="e" d="M357,63v69.333L297,167V97.667L357,63Z"/><path class="f" d="M237,63l60,34.667V167l-60-34.667V63Z"/><path class="g" d="M357,62.9,297,97.5,237,62.9l60-34.4Z"/></g><g transform="translate(723 1485.5)"><path class="e" d="M357,63v69.333L297,167V97.667L357,63Z"/><path class="f" d="M237,63l60,34.667V167l-60-34.667V63Z"/><path class="g" d="M357,62.9,297,97.5,237,62.9l60-34.4Z"/></g><g transform="translate(1203 1485.5)"><path class="e" d="M357,63v69.333L297,167V97.667L357,63Z"/><path class="f" d="M237,63l60,34.667V167l-60-34.667V63Z"/><path class="g" d="M357,62.9,297,97.5,237,62.9l60-34.4Z"/></g><g transform="translate(123 1485.5)"><path class="e" d="M357,63v69.333L297,167V97.667L357,63Z"/><path class="f" d="M237,63l60,34.667V167l-60-34.667V63Z"/><path class="g" d="M357,62.9,297,97.5,237,62.9l60-34.4Z"/></g><g transform="translate(843 1485.5)"><path class="e" d="M357,63v69.333L297,167V97.667L357,63Z"/><path class="f" d="M237,63l60,34.667V167l-60-34.667V63Z"/><path class="g" d="M357,62.9,297,97.5,237,62.9l60-34.4Z"/></g><g transform="translate(1323 1485.5)"><path class="e" d="M357,63v69.333L297,167V97.667L357,63Z"/><path class="f" d="M237,63l60,34.667V167l-60-34.667V63Z"/><path class="g" d="M357,62.9,297,97.5,237,62.9l60-34.4Z"/></g><g transform="translate(243 1485.5)"><path class="e" d="M357,63v69.333L297,167V97.667L357,63Z"/><path class="f" d="M237,63l60,34.667V167l-60-34.667V63Z"/><path class="g" d="M357,62.9,297,97.5,237,62.9l60-34.4Z"/></g><g transform="translate(963 1485.5)"><path class="e" d="M357,63v69.333L297,167V97.667L357,63Z"/><path class="f" d="M237,63l60,34.667V167l-60-34.667V63Z"/><path class="g" d="M357,62.9,297,97.5,237,62.9l60-34.4Z"/></g><g transform="translate(1443 1485.5)"><path class="e" d="M357,63v69.333L297,167V97.667L357,63Z"/><path class="f" d="M237,63l60,34.667V167l-60-34.667V63Z"/><path class="g" d="M357,62.9,297,97.5,237,62.9l60-34.4Z"/></g><g transform="translate(363 1485.5)"><path class="e" d="M357,63v69.333L297,167V97.667L357,63Z"/><path class="f" d="M237,63l60,34.667V167l-60-34.667V63Z"/><path class="g" d="M357,62.9,297,97.5,237,62.9l60-34.4Z"/></g><g transform="translate(1083 1485.5)"><path class="e" d="M357,63v69.333L297,167V97.667L357,63Z"/><path class="f" d="M237,63l60,34.667V167l-60-34.667V63Z"/><path class="g" d="M357,62.9,297,97.5,237,62.9l60-34.4Z"/></g><g transform="translate(1563 1485.5)"><path class="e" d="M357,63v69.333L297,167V97.667L357,63Z"/><path class="f" d="M237,63l60,34.667V167l-60-34.667V63Z"/><path class="g" d="M357,62.9,297,97.5,237,62.9l60-34.4Z"/></g><g transform="translate(0 208)"><g transform="translate(-237 1485.5)"><path class="e" d="M357,63v69.333L297,167V97.667L357,63Z"/><path class="f" d="M237,63l60,34.667V167l-60-34.667V63Z"/><path class="g" d="M357,62.9,297,97.5,237,62.9l60-34.4Z"/></g><g transform="translate(483 1485.5)"><path class="e" d="M357,63v69.333L297,167V97.667L357,63Z"/><path class="f" d="M237,63l60,34.667V167l-60-34.667V63Z"/><path class="g" d="M357,62.9,297,97.5,237,62.9l60-34.4Z"/></g><g transform="translate(-117 1485.5)"><path class="e" d="M357,63v69.333L297,167V97.667L357,63Z"/><path class="f" d="M237,63l60,34.667V167l-60-34.667V63Z"/><path class="g" d="M357,62.9,297,97.5,237,62.9l60-34.4Z"/></g><g transform="translate(603 1485.5)"><path class="e" d="M357,63v69.333L297,167V97.667L357,63Z"/><path class="f" d="M237,63l60,34.667V167l-60-34.667V63Z"/><path class="g" d="M357,62.9,297,97.5,237,62.9l60-34.4Z"/></g><g transform="translate(3 1485.5)"><path class="e" d="M357,63v69.333L297,167V97.667L357,63Z"/><path class="f" d="M237,63l60,34.667V167l-60-34.667V63Z"/><path class="g" d="M357,62.9,297,97.5,237,62.9l60-34.4Z"/></g><g transform="translate(723 1485.5)"><path class="e" d="M357,63v69.333L297,167V97.667L357,63Z"/><path class="f" d="M237,63l60,34.667V167l-60-34.667V63Z"/><path class="g" d="M357,62.9,297,97.5,237,62.9l60-34.4Z"/></g><g transform="translate(1203 1485.5)"><path class="e" d="M357,63v69.333L297,167V97.667L357,63Z"/><path class="f" d="M237,63l60,34.667V167l-60-34.667V63Z"/><path class="g" d="M357,62.9,297,97.5,237,62.9l60-34.4Z"/></g><g transform="translate(123 1485.5)"><path class="e" d="M357,63v69.333L297,167V97.667L357,63Z"/><path class="f" d="M237,63l60,34.667V167l-60-34.667V63Z"/><path class="g" d="M357,62.9,297,97.5,237,62.9l60-34.4Z"/></g><g transform="translate(843 1485.5)"><path class="e" d="M357,63v69.333L297,167V97.667L357,63Z"/><path class="f" d="M237,63l60,34.667V167l-60-34.667V63Z"/><path class="g" d="M357,62.9,297,97.5,237,62.9l60-34.4Z"/></g><g transform="translate(1323 1485.5)"><path class="e" d="M357,63v69.333L297,167V97.667L357,63Z"/><path class="f" d="M237,63l60,34.667V167l-60-34.667V63Z"/><path class="g" d="M357,62.9,297,97.5,237,62.9l60-34.4Z"/></g><g transform="translate(243 1485.5)"><path class="e" d="M357,63v69.333L297,167V97.667L357,63Z"/><path class="f" d="M237,63l60,34.667V167l-60-34.667V63Z"/><path class="g" d="M357,62.9,297,97.5,237,62.9l60-34.4Z"/></g><g transform="translate(963 1485.5)"><path class="e" d="M357,63v69.333L297,167V97.667L357,63Z"/><path class="f" d="M237,63l60,34.667V167l-60-34.667V63Z"/><path class="g" d="M357,62.9,297,97.5,237,62.9l60-34.4Z"/></g><g transform="translate(1443 1485.5)"><path class="e" d="M357,63v69.333L297,167V97.667L357,63Z"/><path class="f" d="M237,63l60,34.667V167l-60-34.667V63Z"/><path class="g" d="M357,62.9,297,97.5,237,62.9l60-34.4Z"/></g><g transform="translate(363 1485.5)"><path class="e" d="M357,63v69.333L297,167V97.667L357,63Z"/><path class="f" d="M237,63l60,34.667V167l-60-34.667V63Z"/><path class="g" d="M357,62.9,297,97.5,237,62.9l60-34.4Z"/></g><g transform="translate(1083 1485.5)"><path class="e" d="M357,63v69.333L297,167V97.667L357,63Z"/><path class="f" d="M237,63l60,34.667V167l-60-34.667V63Z"/><path class="g" d="M357,62.9,297,97.5,237,62.9l60-34.4Z"/></g><g transform="translate(1563 1485.5)"><path class="e" d="M357,63v69.333L297,167V97.667L357,63Z"/><path class="f" d="M237,63l60,34.667V167l-60-34.667V63Z"/><path class="g" d="M357,62.9,297,97.5,237,62.9l60-34.4Z"/></g></g><g transform="translate(-60 104)"><g transform="translate(-237 1485.5)"><path class="e" d="M357,63v69.333L297,167V97.667L357,63Z"/><path class="f" d="M237,63l60,34.667V167l-60-34.667V63Z"/><path class="g" d="M357,62.9,297,97.5,237,62.9l60-34.4Z"/></g><g transform="translate(483 1485.5)"><path class="e" d="M357,63v69.333L297,167V97.667L357,63Z"/><path class="f" d="M237,63l60,34.667V167l-60-34.667V63Z"/><path class="g" d="M357,62.9,297,97.5,237,62.9l60-34.4Z"/></g><g transform="translate(-117 1485.5)"><path class="e" d="M357,63v69.333L297,167V97.667L357,63Z"/><path class="f" d="M237,63l60,34.667V167l-60-34.667V63Z"/><path class="g" d="M357,62.9,297,97.5,237,62.9l60-34.4Z"/></g><g transform="translate(603 1485.5)"><path class="e" d="M357,63v69.333L297,167V97.667L357,63Z"/><path class="f" d="M237,63l60,34.667V167l-60-34.667V63Z"/><path class="g" d="M357,62.9,297,97.5,237,62.9l60-34.4Z"/></g><g transform="translate(3 1485.5)"><path class="e" d="M357,63v69.333L297,167V97.667L357,63Z"/><path class="f" d="M237,63l60,34.667V167l-60-34.667V63Z"/><path class="g" d="M357,62.9,297,97.5,237,62.9l60-34.4Z"/></g><g transform="translate(723 1485.5)"><path class="e" d="M357,63v69.333L297,167V97.667L357,63Z"/><path class="f" d="M237,63l60,34.667V167l-60-34.667V63Z"/><path class="g" d="M357,62.9,297,97.5,237,62.9l60-34.4Z"/></g><g transform="translate(1203 1485.5)"><path class="e" d="M357,63v69.333L297,167V97.667L357,63Z"/><path class="f" d="M237,63l60,34.667V167l-60-34.667V63Z"/><path class="g" d="M357,62.9,297,97.5,237,62.9l60-34.4Z"/></g><g transform="translate(123 1485.5)"><path class="e" d="M357,63v69.333L297,167V97.667L357,63Z"/><path class="f" d="M237,63l60,34.667V167l-60-34.667V63Z"/><path class="g" d="M357,62.9,297,97.5,237,62.9l60-34.4Z"/></g><g transform="translate(843 1485.5)"><path class="e" d="M357,63v69.333L297,167V97.667L357,63Z"/><path class="f" d="M237,63l60,34.667V167l-60-34.667V63Z"/><path class="g" d="M357,62.9,297,97.5,237,62.9l60-34.4Z"/></g><g transform="translate(1323 1485.5)"><path class="e" d="M357,63v69.333L297,167V97.667L357,63Z"/><path class="f" d="M237,63l60,34.667V167l-60-34.667V63Z"/><path class="g" d="M357,62.9,297,97.5,237,62.9l60-34.4Z"/></g><g transform="translate(243 1485.5)"><path class="e" d="M357,63v69.333L297,167V97.667L357,63Z"/><path class="f" d="M237,63l60,34.667V167l-60-34.667V63Z"/><path class="g" d="M357,62.9,297,97.5,237,62.9l60-34.4Z"/></g><g transform="translate(963 1485.5)"><path class="e" d="M357,63v69.333L297,167V97.667L357,63Z"/><path class="f" d="M237,63l60,34.667V167l-60-34.667V63Z"/><path class="g" d="M357,62.9,297,97.5,237,62.9l60-34.4Z"/></g><g transform="translate(1443 1485.5)"><path class="e" d="M357,63v69.333L297,167V97.667L357,63Z"/><path class="f" d="M237,63l60,34.667V167l-60-34.667V63Z"/><path class="g" d="M357,62.9,297,97.5,237,62.9l60-34.4Z"/></g><g transform="translate(363 1485.5)"><path class="e" d="M357,63v69.333L297,167V97.667L357,63Z"/><path class="f" d="M237,63l60,34.667V167l-60-34.667V63Z"/><path class="g" d="M357,62.9,297,97.5,237,62.9l60-34.4Z"/></g><g transform="translate(1083 1485.5)"><path class="e" d="M357,63v69.333L297,167V97.667L357,63Z"/><path class="f" d="M237,63l60,34.667V167l-60-34.667V63Z"/><path class="g" d="M357,62.9,297,97.5,237,62.9l60-34.4Z"/></g><g transform="translate(1563 1485.5)"><path class="e" d="M357,63v69.333L297,167V97.667L357,63Z"/><path class="f" d="M237,63l60,34.667V167l-60-34.667V63Z"/><path class="g" d="M357,62.9,297,97.5,237,62.9l60-34.4Z"/></g><g transform="translate(1683 1485.5)"><path class="e" d="M357,63v69.333L297,167V97.667L357,63Z"/><path class="f" d="M237,63l60,34.667V167l-60-34.667V63Z"/><path class="g" d="M357,62.9,297,97.5,237,62.9l60-34.4Z"/></g></g><g transform="translate(-60 -104)"><g transform="translate(-237 1485.5)"><path class="e" d="M357,63v69.333L297,167V97.667L357,63Z"/><path class="f" d="M237,63l60,34.667V167l-60-34.667V63Z"/><path class="g" d="M357,62.9,297,97.5,237,62.9l60-34.4Z"/></g><g transform="translate(483 1485.5)"><path class="e" d="M357,63v69.333L297,167V97.667L357,63Z"/><path class="f" d="M237,63l60,34.667V167l-60-34.667V63Z"/><path class="g" d="M357,62.9,297,97.5,237,62.9l60-34.4Z"/></g><g transform="translate(-117 1485.5)"><path class="e" d="M357,63v69.333L297,167V97.667L357,63Z"/><path class="f" d="M237,63l60,34.667V167l-60-34.667V63Z"/><path class="g" d="M357,62.9,297,97.5,237,62.9l60-34.4Z"/></g><g transform="translate(603 1485.5)"><path class="e" d="M357,63v69.333L297,167V97.667L357,63Z"/><path class="f" d="M237,63l60,34.667V167l-60-34.667V63Z"/><path class="g" d="M357,62.9,297,97.5,237,62.9l60-34.4Z"/></g><g transform="translate(3 1485.5)"><path class="e" d="M357,63v69.333L297,167V97.667L357,63Z"/><path class="f" d="M237,63l60,34.667V167l-60-34.667V63Z"/><path class="g" d="M357,62.9,297,97.5,237,62.9l60-34.4Z"/></g><g transform="translate(723 1485.5)"><path class="e" d="M357,63v69.333L297,167V97.667L357,63Z"/><path class="f" d="M237,63l60,34.667V167l-60-34.667V63Z"/><path class="g" d="M357,62.9,297,97.5,237,62.9l60-34.4Z"/></g><g transform="translate(1203 1485.5)"><path class="e" d="M357,63v69.333L297,167V97.667L357,63Z"/><path class="f" d="M237,63l60,34.667V167l-60-34.667V63Z"/><path class="g" d="M357,62.9,297,97.5,237,62.9l60-34.4Z"/></g><g transform="translate(123 1485.5)"><path class="e" d="M357,63v69.333L297,167V97.667L357,63Z"/><path class="f" d="M237,63l60,34.667V167l-60-34.667V63Z"/><path class="g" d="M357,62.9,297,97.5,237,62.9l60-34.4Z"/></g><g transform="translate(843 1485.5)"><path class="e" d="M357,63v69.333L297,167V97.667L357,63Z"/><path class="f" d="M237,63l60,34.667V167l-60-34.667V63Z"/><path class="g" d="M357,62.9,297,97.5,237,62.9l60-34.4Z"/></g><g transform="translate(1323 1485.5)"><path class="e" d="M357,63v69.333L297,167V97.667L357,63Z"/><path class="f" d="M237,63l60,34.667V167l-60-34.667V63Z"/><path class="g" d="M357,62.9,297,97.5,237,62.9l60-34.4Z"/></g><g transform="translate(243 1485.5)"><path class="e" d="M357,63v69.333L297,167V97.667L357,63Z"/><path class="f" d="M237,63l60,34.667V167l-60-34.667V63Z"/><path class="g" d="M357,62.9,297,97.5,237,62.9l60-34.4Z"/></g><g transform="translate(963 1485.5)"><path class="e" d="M357,63v69.333L297,167V97.667L357,63Z"/><path class="f" d="M237,63l60,34.667V167l-60-34.667V63Z"/><path class="g" d="M357,62.9,297,97.5,237,62.9l60-34.4Z"/></g><g transform="translate(1443 1485.5)"><path class="e" d="M357,63v69.333L297,167V97.667L357,63Z"/><path class="f" d="M237,63l60,34.667V167l-60-34.667V63Z"/><path class="g" d="M357,62.9,297,97.5,237,62.9l60-34.4Z"/></g><g transform="translate(363 1485.5)"><path class="e" d="M357,63v69.333L297,167V97.667L357,63Z"/><path class="f" d="M237,63l60,34.667V167l-60-34.667V63Z"/><path class="g" d="M357,62.9,297,97.5,237,62.9l60-34.4Z"/></g><g transform="translate(1083 1485.5)"><path class="e" d="M357,63v69.333L297,167V97.667L357,63Z"/><path class="f" d="M237,63l60,34.667V167l-60-34.667V63Z"/><path class="g" d="M357,62.9,297,97.5,237,62.9l60-34.4Z"/></g><g transform="translate(1563 1485.5)"><path class="e" d="M357,63v69.333L297,167V97.667L357,63Z"/><path class="f" d="M237,63l60,34.667V167l-60-34.667V63Z"/><path class="g" d="M357,62.9,297,97.5,237,62.9l60-34.4Z"/></g><g transform="translate(1683 1485.5)"><path class="e" d="M357,63v69.333L297,167V97.667L357,63Z"/><path class="f" d="M237,63l60,34.667V167l-60-34.667V63Z"/><path class="g" d="M357,62.9,297,97.5,237,62.9l60-34.4Z"/></g></g><g transform="translate(0 416)"><g transform="translate(-237 1485.5)"><path class="e" d="M357,63v69.333L297,167V97.667L357,63Z"/><path class="f" d="M237,63l60,34.667V167l-60-34.667V63Z"/><path class="g" d="M357,62.9,297,97.5,237,62.9l60-34.4Z"/></g><g transform="translate(483 1485.5)"><path class="e" d="M357,63v69.333L297,167V97.667L357,63Z"/><path class="f" d="M237,63l60,34.667V167l-60-34.667V63Z"/><path class="g" d="M357,62.9,297,97.5,237,62.9l60-34.4Z"/></g><g transform="translate(-117 1485.5)"><path class="e" d="M357,63v69.333L297,167V97.667L357,63Z"/><path class="f" d="M237,63l60,34.667V167l-60-34.667V63Z"/><path class="g" d="M357,62.9,297,97.5,237,62.9l60-34.4Z"/></g><g transform="translate(603 1485.5)"><path class="e" d="M357,63v69.333L297,167V97.667L357,63Z"/><path class="f" d="M237,63l60,34.667V167l-60-34.667V63Z"/><path class="g" d="M357,62.9,297,97.5,237,62.9l60-34.4Z"/></g><g transform="translate(3 1485.5)"><path class="e" d="M357,63v69.333L297,167V97.667L357,63Z"/><path class="f" d="M237,63l60,34.667V167l-60-34.667V63Z"/><path class="g" d="M357,62.9,297,97.5,237,62.9l60-34.4Z"/></g><g transform="translate(723 1485.5)"><path class="e" d="M357,63v69.333L297,167V97.667L357,63Z"/><path class="f" d="M237,63l60,34.667V167l-60-34.667V63Z"/><path class="g" d="M357,62.9,297,97.5,237,62.9l60-34.4Z"/></g><g transform="translate(1203 1485.5)"><path class="e" d="M357,63v69.333L297,167V97.667L357,63Z"/><path class="f" d="M237,63l60,34.667V167l-60-34.667V63Z"/><path class="g" d="M357,62.9,297,97.5,237,62.9l60-34.4Z"/></g><g transform="translate(123 1485.5)"><path class="e" d="M357,63v69.333L297,167V97.667L357,63Z"/><path class="f" d="M237,63l60,34.667V167l-60-34.667V63Z"/><path class="g" d="M357,62.9,297,97.5,237,62.9l60-34.4Z"/></g><g transform="translate(843 1485.5)"><path class="e" d="M357,63v69.333L297,167V97.667L357,63Z"/><path class="f" d="M237,63l60,34.667V167l-60-34.667V63Z"/><path class="g" d="M357,62.9,297,97.5,237,62.9l60-34.4Z"/></g><g transform="translate(1323 1485.5)"><path class="e" d="M357,63v69.333L297,167V97.667L357,63Z"/><path class="f" d="M237,63l60,34.667V167l-60-34.667V63Z"/><path class="g" d="M357,62.9,297,97.5,237,62.9l60-34.4Z"/></g><g transform="translate(243 1485.5)"><path class="e" d="M357,63v69.333L297,167V97.667L357,63Z"/><path class="f" d="M237,63l60,34.667V167l-60-34.667V63Z"/><path class="g" d="M357,62.9,297,97.5,237,62.9l60-34.4Z"/></g><g transform="translate(963 1485.5)"><path class="e" d="M357,63v69.333L297,167V97.667L357,63Z"/><path class="f" d="M237,63l60,34.667V167l-60-34.667V63Z"/><path class="g" d="M357,62.9,297,97.5,237,62.9l60-34.4Z"/></g><g transform="translate(1443 1485.5)"><path class="e" d="M357,63v69.333L297,167V97.667L357,63Z"/><path class="f" d="M237,63l60,34.667V167l-60-34.667V63Z"/><path class="g" d="M357,62.9,297,97.5,237,62.9l60-34.4Z"/></g><g transform="translate(363 1485.5)"><path class="e" d="M357,63v69.333L297,167V97.667L357,63Z"/><path class="f" d="M237,63l60,34.667V167l-60-34.667V63Z"/><path class="g" d="M357,62.9,297,97.5,237,62.9l60-34.4Z"/></g><g transform="translate(1083 1485.5)"><path class="e" d="M357,63v69.333L297,167V97.667L357,63Z"/><path class="f" d="M237,63l60,34.667V167l-60-34.667V63Z"/><path class="g" d="M357,62.9,297,97.5,237,62.9l60-34.4Z"/></g><g transform="translate(1563 1485.5)"><path class="e" d="M357,63v69.333L297,167V97.667L357,63Z"/><path class="f" d="M237,63l60,34.667V167l-60-34.667V63Z"/><path class="g" d="M357,62.9,297,97.5,237,62.9l60-34.4Z"/></g><g transform="translate(0 208)"><g transform="translate(-237 1485.5)"><path class="e" d="M357,63v69.333L297,167V97.667L357,63Z"/><path class="f" d="M237,63l60,34.667V167l-60-34.667V63Z"/><path class="g" d="M357,62.9,297,97.5,237,62.9l60-34.4Z"/></g><g transform="translate(483 1485.5)"><path class="e" d="M357,63v69.333L297,167V97.667L357,63Z"/><path class="f" d="M237,63l60,34.667V167l-60-34.667V63Z"/><path class="g" d="M357,62.9,297,97.5,237,62.9l60-34.4Z"/></g><g transform="translate(-117 1485.5)"><path class="e" d="M357,63v69.333L297,167V97.667L357,63Z"/><path class="f" d="M237,63l60,34.667V167l-60-34.667V63Z"/><path class="g" d="M357,62.9,297,97.5,237,62.9l60-34.4Z"/></g><g transform="translate(603 1485.5)"><path class="e" d="M357,63v69.333L297,167V97.667L357,63Z"/><path class="f" d="M237,63l60,34.667V167l-60-34.667V63Z"/><path class="g" d="M357,62.9,297,97.5,237,62.9l60-34.4Z"/></g><g transform="translate(3 1485.5)"><path class="e" d="M357,63v69.333L297,167V97.667L357,63Z"/><path class="f" d="M237,63l60,34.667V167l-60-34.667V63Z"/><path class="g" d="M357,62.9,297,97.5,237,62.9l60-34.4Z"/></g><g transform="translate(723 1485.5)"><path class="e" d="M357,63v69.333L297,167V97.667L357,63Z"/><path class="f" d="M237,63l60,34.667V167l-60-34.667V63Z"/><path class="g" d="M357,62.9,297,97.5,237,62.9l60-34.4Z"/></g><g transform="translate(1203 1485.5)"><path class="e" d="M357,63v69.333L297,167V97.667L357,63Z"/><path class="f" d="M237,63l60,34.667V167l-60-34.667V63Z"/><path class="g" d="M357,62.9,297,97.5,237,62.9l60-34.4Z"/></g><g transform="translate(123 1485.5)"><path class="e" d="M357,63v69.333L297,167V97.667L357,63Z"/><path class="f" d="M237,63l60,34.667V167l-60-34.667V63Z"/><path class="g" d="M357,62.9,297,97.5,237,62.9l60-34.4Z"/></g><g transform="translate(843 1485.5)"><path class="e" d="M357,63v69.333L297,167V97.667L357,63Z"/><path class="f" d="M237,63l60,34.667V167l-60-34.667V63Z"/><path class="g" d="M357,62.9,297,97.5,237,62.9l60-34.4Z"/></g><g transform="translate(1323 1485.5)"><path class="e" d="M357,63v69.333L297,167V97.667L357,63Z"/><path class="f" d="M237,63l60,34.667V167l-60-34.667V63Z"/><path class="g" d="M357,62.9,297,97.5,237,62.9l60-34.4Z"/></g><g transform="translate(243 1485.5)"><path class="e" d="M357,63v69.333L297,167V97.667L357,63Z"/><path class="f" d="M237,63l60,34.667V167l-60-34.667V63Z"/><path class="g" d="M357,62.9,297,97.5,237,62.9l60-34.4Z"/></g><g transform="translate(963 1485.5)"><path class="e" d="M357,63v69.333L297,167V97.667L357,63Z"/><path class="f" d="M237,63l60,34.667V167l-60-34.667V63Z"/><path class="g" d="M357,62.9,297,97.5,237,62.9l60-34.4Z"/></g><g transform="translate(1443 1485.5)"><path class="e" d="M357,63v69.333L297,167V97.667L357,63Z"/><path class="f" d="M237,63l60,34.667V167l-60-34.667V63Z"/><path class="g" d="M357,62.9,297,97.5,237,62.9l60-34.4Z"/></g><g transform="translate(363 1485.5)"><path class="e" d="M357,63v69.333L297,167V97.667L357,63Z"/><path class="f" d="M237,63l60,34.667V167l-60-34.667V63Z"/><path class="g" d="M357,62.9,297,97.5,237,62.9l60-34.4Z"/></g><g transform="translate(1083 1485.5)"><path class="e" d="M357,63v69.333L297,167V97.667L357,63Z"/><path class="f" d="M237,63l60,34.667V167l-60-34.667V63Z"/><path class="g" d="M357,62.9,297,97.5,237,62.9l60-34.4Z"/></g><g transform="translate(1563 1485.5)"><path class="e" d="M357,63v69.333L297,167V97.667L357,63Z"/><path class="f" d="M237,63l60,34.667V167l-60-34.667V63Z"/><path class="g" d="M357,62.9,297,97.5,237,62.9l60-34.4Z"/></g></g><g transform="translate(-60 104)"><g transform="translate(-237 1485.5)"><path class="e" d="M357,63v69.333L297,167V97.667L357,63Z"/><path class="f" d="M237,63l60,34.667V167l-60-34.667V63Z"/><path class="g" d="M357,62.9,297,97.5,237,62.9l60-34.4Z"/></g><g transform="translate(483 1485.5)"><path class="e" d="M357,63v69.333L297,167V97.667L357,63Z"/><path class="f" d="M237,63l60,34.667V167l-60-34.667V63Z"/><path class="g" d="M357,62.9,297,97.5,237,62.9l60-34.4Z"/></g><g transform="translate(-117 1485.5)"><path class="e" d="M357,63v69.333L297,167V97.667L357,63Z"/><path class="f" d="M237,63l60,34.667V167l-60-34.667V63Z"/><path class="g" d="M357,62.9,297,97.5,237,62.9l60-34.4Z"/></g><g transform="translate(603 1485.5)"><path class="e" d="M357,63v69.333L297,167V97.667L357,63Z"/><path class="f" d="M237,63l60,34.667V167l-60-34.667V63Z"/><path class="g" d="M357,62.9,297,97.5,237,62.9l60-34.4Z"/></g><g transform="translate(3 1485.5)"><path class="e" d="M357,63v69.333L297,167V97.667L357,63Z"/><path class="f" d="M237,63l60,34.667V167l-60-34.667V63Z"/><path class="g" d="M357,62.9,297,97.5,237,62.9l60-34.4Z"/></g><g transform="translate(723 1485.5)"><path class="e" d="M357,63v69.333L297,167V97.667L357,63Z"/><path class="f" d="M237,63l60,34.667V167l-60-34.667V63Z"/><path class="g" d="M357,62.9,297,97.5,237,62.9l60-34.4Z"/></g><g transform="translate(1203 1485.5)"><path class="e" d="M357,63v69.333L297,167V97.667L357,63Z"/><path class="f" d="M237,63l60,34.667V167l-60-34.667V63Z"/><path class="g" d="M357,62.9,297,97.5,237,62.9l60-34.4Z"/></g><g transform="translate(123 1485.5)"><path class="e" d="M357,63v69.333L297,167V97.667L357,63Z"/><path class="f" d="M237,63l60,34.667V167l-60-34.667V63Z"/><path class="g" d="M357,62.9,297,97.5,237,62.9l60-34.4Z"/></g><g transform="translate(843 1485.5)"><path class="e" d="M357,63v69.333L297,167V97.667L357,63Z"/><path class="f" d="M237,63l60,34.667V167l-60-34.667V63Z"/><path class="g" d="M357,62.9,297,97.5,237,62.9l60-34.4Z"/></g><g transform="translate(1323 1485.5)"><path class="e" d="M357,63v69.333L297,167V97.667L357,63Z"/><path class="f" d="M237,63l60,34.667V167l-60-34.667V63Z"/><path class="g" d="M357,62.9,297,97.5,237,62.9l60-34.4Z"/></g><g transform="translate(243 1485.5)"><path class="e" d="M357,63v69.333L297,167V97.667L357,63Z"/><path class="f" d="M237,63l60,34.667V167l-60-34.667V63Z"/><path class="g" d="M357,62.9,297,97.5,237,62.9l60-34.4Z"/></g><g transform="translate(963 1485.5)"><path class="e" d="M357,63v69.333L297,167V97.667L357,63Z"/><path class="f" d="M237,63l60,34.667V167l-60-34.667V63Z"/><path class="g" d="M357,62.9,297,97.5,237,62.9l60-34.4Z"/></g><g transform="translate(1443 1485.5)"><path class="e" d="M357,63v69.333L297,167V97.667L357,63Z"/><path class="f" d="M237,63l60,34.667V167l-60-34.667V63Z"/><path class="g" d="M357,62.9,297,97.5,237,62.9l60-34.4Z"/></g><g transform="translate(363 1485.5)"><path class="e" d="M357,63v69.333L297,167V97.667L357,63Z"/><path class="f" d="M237,63l60,34.667V167l-60-34.667V63Z"/><path class="g" d="M357,62.9,297,97.5,237,62.9l60-34.4Z"/></g><g transform="translate(1083 1485.5)"><path class="e" d="M357,63v69.333L297,167V97.667L357,63Z"/><path class="f" d="M237,63l60,34.667V167l-60-34.667V63Z"/><path class="g" d="M357,62.9,297,97.5,237,62.9l60-34.4Z"/></g><g transform="translate(1563 1485.5)"><path class="e" d="M357,63v69.333L297,167V97.667L357,63Z"/><path class="f" d="M237,63l60,34.667V167l-60-34.667V63Z"/><path class="g" d="M357,62.9,297,97.5,237,62.9l60-34.4Z"/></g><g transform="translate(1683 1485.5)"><path class="e" d="M357,63v69.333L297,167V97.667L357,63Z"/><path class="f" d="M237,63l60,34.667V167l-60-34.667V63Z"/><path class="g" d="M357,62.9,297,97.5,237,62.9l60-34.4Z"/></g></g><g transform="translate(-60 -104)"><g transform="translate(-237 1485.5)"><path class="e" d="M357,63v69.333L297,167V97.667L357,63Z"/><path class="f" d="M237,63l60,34.667V167l-60-34.667V63Z"/><path class="g" d="M357,62.9,297,97.5,237,62.9l60-34.4Z"/></g><g transform="translate(483 1485.5)"><path class="e" d="M357,63v69.333L297,167V97.667L357,63Z"/><path class="f" d="M237,63l60,34.667V167l-60-34.667V63Z"/><path class="g" d="M357,62.9,297,97.5,237,62.9l60-34.4Z"/></g><g transform="translate(-117 1485.5)"><path class="e" d="M357,63v69.333L297,167V97.667L357,63Z"/><path class="f" d="M237,63l60,34.667V167l-60-34.667V63Z"/><path class="g" d="M357,62.9,297,97.5,237,62.9l60-34.4Z"/></g><g transform="translate(603 1485.5)"><path class="e" d="M357,63v69.333L297,167V97.667L357,63Z"/><path class="f" d="M237,63l60,34.667V167l-60-34.667V63Z"/><path class="g" d="M357,62.9,297,97.5,237,62.9l60-34.4Z"/></g><g transform="translate(3 1485.5)"><path class="e" d="M357,63v69.333L297,167V97.667L357,63Z"/><path class="f" d="M237,63l60,34.667V167l-60-34.667V63Z"/><path class="g" d="M357,62.9,297,97.5,237,62.9l60-34.4Z"/></g><g transform="translate(723 1485.5)"><path class="e" d="M357,63v69.333L297,167V97.667L357,63Z"/><path class="f" d="M237,63l60,34.667V167l-60-34.667V63Z"/><path class="g" d="M357,62.9,297,97.5,237,62.9l60-34.4Z"/></g><g transform="translate(1203 1485.5)"><path class="e" d="M357,63v69.333L297,167V97.667L357,63Z"/><path class="f" d="M237,63l60,34.667V167l-60-34.667V63Z"/><path class="g" d="M357,62.9,297,97.5,237,62.9l60-34.4Z"/></g><g transform="translate(123 1485.5)"><path class="e" d="M357,63v69.333L297,167V97.667L357,63Z"/><path class="f" d="M237,63l60,34.667V167l-60-34.667V63Z"/><path class="g" d="M357,62.9,297,97.5,237,62.9l60-34.4Z"/></g><g transform="translate(843 1485.5)"><path class="e" d="M357,63v69.333L297,167V97.667L357,63Z"/><path class="f" d="M237,63l60,34.667V167l-60-34.667V63Z"/><path class="g" d="M357,62.9,297,97.5,237,62.9l60-34.4Z"/></g><g transform="translate(1323 1485.5)"><path class="e" d="M357,63v69.333L297,167V97.667L357,63Z"/><path class="f" d="M237,63l60,34.667V167l-60-34.667V63Z"/><path class="g" d="M357,62.9,297,97.5,237,62.9l60-34.4Z"/></g><g transform="translate(243 1485.5)"><path class="e" d="M357,63v69.333L297,167V97.667L357,63Z"/><path class="f" d="M237,63l60,34.667V167l-60-34.667V63Z"/><path class="g" d="M357,62.9,297,97.5,237,62.9l60-34.4Z"/></g><g transform="translate(963 1485.5)"><path class="e" d="M357,63v69.333L297,167V97.667L357,63Z"/><path class="f" d="M237,63l60,34.667V167l-60-34.667V63Z"/><path class="g" d="M357,62.9,297,97.5,237,62.9l60-34.4Z"/></g><g transform="translate(1443 1485.5)"><path class="e" d="M357,63v69.333L297,167V97.667L357,63Z"/><path class="f" d="M237,63l60,34.667V167l-60-34.667V63Z"/><path class="g" d="M357,62.9,297,97.5,237,62.9l60-34.4Z"/></g><g transform="translate(363 1485.5)"><path class="e" d="M357,63v69.333L297,167V97.667L357,63Z"/><path class="f" d="M237,63l60,34.667V167l-60-34.667V63Z"/><path class="g" d="M357,62.9,297,97.5,237,62.9l60-34.4Z"/></g><g transform="translate(1083 1485.5)"><path class="e" d="M357,63v69.333L297,167V97.667L357,63Z"/><path class="f" d="M237,63l60,34.667V167l-60-34.667V63Z"/><path class="g" d="M357,62.9,297,97.5,237,62.9l60-34.4Z"/></g><g transform="translate(1563 1485.5)"><path class="e" d="M357,63v69.333L297,167V97.667L357,63Z"/><path class="f" d="M237,63l60,34.667V167l-60-34.667V63Z"/><path class="g" d="M357,62.9,297,97.5,237,62.9l60-34.4Z"/></g><g transform="translate(1683 1485.5)"><path class="e" d="M357,63v69.333L297,167V97.667L357,63Z"/><path class="f" d="M237,63l60,34.667V167l-60-34.667V63Z"/><path class="g" d="M357,62.9,297,97.5,237,62.9l60-34.4Z"/></g></g></g><g transform="translate(0 832)"><g transform="translate(-237 1485.5)"><path class="e" d="M357,63v69.333L297,167V97.667L357,63Z"/><path class="f" d="M237,63l60,34.667V167l-60-34.667V63Z"/><path class="g" d="M357,62.9,297,97.5,237,62.9l60-34.4Z"/></g><g transform="translate(483 1485.5)"><path class="e" d="M357,63v69.333L297,167V97.667L357,63Z"/><path class="f" d="M237,63l60,34.667V167l-60-34.667V63Z"/><path class="g" d="M357,62.9,297,97.5,237,62.9l60-34.4Z"/></g><g transform="translate(-117 1485.5)"><path class="e" d="M357,63v69.333L297,167V97.667L357,63Z"/><path class="f" d="M237,63l60,34.667V167l-60-34.667V63Z"/><path class="g" d="M357,62.9,297,97.5,237,62.9l60-34.4Z"/></g><g transform="translate(603 1485.5)"><path class="e" d="M357,63v69.333L297,167V97.667L357,63Z"/><path class="f" d="M237,63l60,34.667V167l-60-34.667V63Z"/><path class="g" d="M357,62.9,297,97.5,237,62.9l60-34.4Z"/></g><g transform="translate(3 1485.5)"><path class="e" d="M357,63v69.333L297,167V97.667L357,63Z"/><path class="f" d="M237,63l60,34.667V167l-60-34.667V63Z"/><path class="g" d="M357,62.9,297,97.5,237,62.9l60-34.4Z"/></g><g transform="translate(723 1485.5)"><path class="e" d="M357,63v69.333L297,167V97.667L357,63Z"/><path class="f" d="M237,63l60,34.667V167l-60-34.667V63Z"/><path class="g" d="M357,62.9,297,97.5,237,62.9l60-34.4Z"/></g><g transform="translate(1203 1485.5)"><path class="e" d="M357,63v69.333L297,167V97.667L357,63Z"/><path class="f" d="M237,63l60,34.667V167l-60-34.667V63Z"/><path class="g" d="M357,62.9,297,97.5,237,62.9l60-34.4Z"/></g><g transform="translate(123 1485.5)"><path class="e" d="M357,63v69.333L297,167V97.667L357,63Z"/><path class="f" d="M237,63l60,34.667V167l-60-34.667V63Z"/><path class="g" d="M357,62.9,297,97.5,237,62.9l60-34.4Z"/></g><g transform="translate(843 1485.5)"><path class="e" d="M357,63v69.333L297,167V97.667L357,63Z"/><path class="f" d="M237,63l60,34.667V167l-60-34.667V63Z"/><path class="g" d="M357,62.9,297,97.5,237,62.9l60-34.4Z"/></g><g transform="translate(1323 1485.5)"><path class="e" d="M357,63v69.333L297,167V97.667L357,63Z"/><path class="f" d="M237,63l60,34.667V167l-60-34.667V63Z"/><path class="g" d="M357,62.9,297,97.5,237,62.9l60-34.4Z"/></g><g transform="translate(243 1485.5)"><path class="e" d="M357,63v69.333L297,167V97.667L357,63Z"/><path class="f" d="M237,63l60,34.667V167l-60-34.667V63Z"/><path class="g" d="M357,62.9,297,97.5,237,62.9l60-34.4Z"/></g><g transform="translate(963 1485.5)"><path class="e" d="M357,63v69.333L297,167V97.667L357,63Z"/><path class="f" d="M237,63l60,34.667V167l-60-34.667V63Z"/><path class="g" d="M357,62.9,297,97.5,237,62.9l60-34.4Z"/></g><g transform="translate(1443 1485.5)"><path class="e" d="M357,63v69.333L297,167V97.667L357,63Z"/><path class="f" d="M237,63l60,34.667V167l-60-34.667V63Z"/><path class="g" d="M357,62.9,297,97.5,237,62.9l60-34.4Z"/></g><g transform="translate(363 1485.5)"><path class="e" d="M357,63v69.333L297,167V97.667L357,63Z"/><path class="f" d="M237,63l60,34.667V167l-60-34.667V63Z"/><path class="g" d="M357,62.9,297,97.5,237,62.9l60-34.4Z"/></g><g transform="translate(1083 1485.5)"><path class="e" d="M357,63v69.333L297,167V97.667L357,63Z"/><path class="f" d="M237,63l60,34.667V167l-60-34.667V63Z"/><path class="g" d="M357,62.9,297,97.5,237,62.9l60-34.4Z"/></g><g transform="translate(1563 1485.5)"><path class="e" d="M357,63v69.333L297,167V97.667L357,63Z"/><path class="f" d="M237,63l60,34.667V167l-60-34.667V63Z"/><path class="g" d="M357,62.9,297,97.5,237,62.9l60-34.4Z"/></g></g><g transform="translate(-60 728)"><g transform="translate(-237 1485.5)"><path class="e" d="M357,63v69.333L297,167V97.667L357,63Z"/><path class="f" d="M237,63l60,34.667V167l-60-34.667V63Z"/><path class="g" d="M357,62.9,297,97.5,237,62.9l60-34.4Z"/></g><g transform="translate(483 1485.5)"><path class="e" d="M357,63v69.333L297,167V97.667L357,63Z"/><path class="f" d="M237,63l60,34.667V167l-60-34.667V63Z"/><path class="g" d="M357,62.9,297,97.5,237,62.9l60-34.4Z"/></g><g transform="translate(-117 1485.5)"><path class="e" d="M357,63v69.333L297,167V97.667L357,63Z"/><path class="f" d="M237,63l60,34.667V167l-60-34.667V63Z"/><path class="g" d="M357,62.9,297,97.5,237,62.9l60-34.4Z"/></g><g transform="translate(603 1485.5)"><path class="e" d="M357,63v69.333L297,167V97.667L357,63Z"/><path class="f" d="M237,63l60,34.667V167l-60-34.667V63Z"/><path class="g" d="M357,62.9,297,97.5,237,62.9l60-34.4Z"/></g><g transform="translate(3 1485.5)"><path class="e" d="M357,63v69.333L297,167V97.667L357,63Z"/><path class="f" d="M237,63l60,34.667V167l-60-34.667V63Z"/><path class="g" d="M357,62.9,297,97.5,237,62.9l60-34.4Z"/></g><g transform="translate(723 1485.5)"><path class="e" d="M357,63v69.333L297,167V97.667L357,63Z"/><path class="f" d="M237,63l60,34.667V167l-60-34.667V63Z"/><path class="g" d="M357,62.9,297,97.5,237,62.9l60-34.4Z"/></g><g transform="translate(1203 1485.5)"><path class="e" d="M357,63v69.333L297,167V97.667L357,63Z"/><path class="f" d="M237,63l60,34.667V167l-60-34.667V63Z"/><path class="g" d="M357,62.9,297,97.5,237,62.9l60-34.4Z"/></g><g transform="translate(123 1485.5)"><path class="e" d="M357,63v69.333L297,167V97.667L357,63Z"/><path class="f" d="M237,63l60,34.667V167l-60-34.667V63Z"/><path class="g" d="M357,62.9,297,97.5,237,62.9l60-34.4Z"/></g><g transform="translate(843 1485.5)"><path class="e" d="M357,63v69.333L297,167V97.667L357,63Z"/><path class="f" d="M237,63l60,34.667V167l-60-34.667V63Z"/><path class="g" d="M357,62.9,297,97.5,237,62.9l60-34.4Z"/></g><g transform="translate(1323 1485.5)"><path class="e" d="M357,63v69.333L297,167V97.667L357,63Z"/><path class="f" d="M237,63l60,34.667V167l-60-34.667V63Z"/><path class="g" d="M357,62.9,297,97.5,237,62.9l60-34.4Z"/></g><g transform="translate(243 1485.5)"><path class="e" d="M357,63v69.333L297,167V97.667L357,63Z"/><path class="f" d="M237,63l60,34.667V167l-60-34.667V63Z"/><path class="g" d="M357,62.9,297,97.5,237,62.9l60-34.4Z"/></g><g transform="translate(963 1485.5)"><path class="e" d="M357,63v69.333L297,167V97.667L357,63Z"/><path class="f" d="M237,63l60,34.667V167l-60-34.667V63Z"/><path class="g" d="M357,62.9,297,97.5,237,62.9l60-34.4Z"/></g><g transform="translate(1443 1485.5)"><path class="e" d="M357,63v69.333L297,167V97.667L357,63Z"/><path class="f" d="M237,63l60,34.667V167l-60-34.667V63Z"/><path class="g" d="M357,62.9,297,97.5,237,62.9l60-34.4Z"/></g><g transform="translate(363 1485.5)"><path class="e" d="M357,63v69.333L297,167V97.667L357,63Z"/><path class="f" d="M237,63l60,34.667V167l-60-34.667V63Z"/><path class="g" d="M357,62.9,297,97.5,237,62.9l60-34.4Z"/></g><g transform="translate(1083 1485.5)"><path class="e" d="M357,63v69.333L297,167V97.667L357,63Z"/><path class="f" d="M237,63l60,34.667V167l-60-34.667V63Z"/><path class="g" d="M357,62.9,297,97.5,237,62.9l60-34.4Z"/></g><g transform="translate(1563 1485.5)"><path class="e" d="M357,63v69.333L297,167V97.667L357,63Z"/><path class="f" d="M237,63l60,34.667V167l-60-34.667V63Z"/><path class="g" d="M357,62.9,297,97.5,237,62.9l60-34.4Z"/></g><g transform="translate(1683 1485.5)"><path class="e" d="M357,63v69.333L297,167V97.667L357,63Z"/><path class="f" d="M237,63l60,34.667V167l-60-34.667V63Z"/><path class="g" d="M357,62.9,297,97.5,237,62.9l60-34.4Z"/></g></g></g></g><rect class="a" width="1923" height="900"/></svg>