<?xml version="1.0" encoding="utf-8"?>
<!-- Generator: Adobe Illustrator 25.0.0, SVG Export Plug-In . SVG Version: 6.00 Build 0)  -->
<svg version="1.1" id="Layer_1" xmlns="http://www.w3.org/2000/svg" xmlns:xlink="http://www.w3.org/1999/xlink" x="0px" y="0px"
	 viewBox="0 0 361 242.9" style="enable-background:new 0 0 361 242.9;" xml:space="preserve">
<style>
	.st0{fill:#F7D030;}
</style>
<path class="st0" d="M361,242.9H2.5c-0.9-0.9-1.7-1.8-2.5-2.6V114.9c0.6-0.5,1.4-1,2.1-1.5c7.9-5.3,16.3-9.7,25-13.2
	c9.2-3.7,18.7-6.6,28.4-8.7c9.8-2.1,19.7-3.4,29.7-3.9c1.9-0.1,3.8-0.1,5.7-0.1c9,0,18,1,26.7,3c7.8,1.8,15.6,4,23.2,6.6l0.5,0.2
	l0.6,0.2l1.3,0.4l0.2,0.1l0.2,0.1h0h0c13.6,4.5,26.4,8.7,40.5,8.7c5.8,0,11.7-0.7,17.3-2.2c7.8-2,15.2-4.9,22.3-8.7
	c6.1-3.4,11.9-7.4,17.1-12.1c10.1-9,17.9-19.6,25.5-29.9l0,0l0,0l0,0v0c7.3-9.8,14.8-20,24.1-28.6c4.8-4.5,10.1-8.5,15.8-11.8
	c6.4-3.7,13.2-6.7,20.3-8.8c9.8-3,20.1-4.5,30.4-4.5c1.3,0,2.7,0,3.9,0.1L361,242.9L361,242.9z"/>
</svg>
