<?xml version="1.0" encoding="utf-8"?>
<!-- Generator: Adobe Illustrator 23.0.6, SVG Export Plug-In . SVG Version: 6.00 Build 0)  -->
<svg version="1.1" id="Layer_1" xmlns="http://www.w3.org/2000/svg" xmlns:xlink="http://www.w3.org/1999/xlink" x="0px" y="0px"
	 viewBox="0 0 1866.5 1222.9" style="enable-background:new 0 0 1866.5 1222.9;" xml:space="preserve">
<style>
	.st0{display:none;}
	.st1{display:inline;fill:#EFEBE5;}
	.st2{clip-path:url(#SVGID_2_);}
	.st3{fill:#FFFFFF;}
	.st4{fill:#E8F0F2;}
</style>
<g transform="translate(0 858.425) rotate(-30)" class="st0">
	<path class="st1" d="M100.6-163.9C161.4-351.4,408.3-354.8,593.2-264C746.9-188.6,780.8-46.6,918.7-13.2
		c226.8,55,312.9-161.9,532.6-119.2c359.4,69.8,483.1,710.2,161.9,978C1043.7,1320.5-77.3,384.9,100.6-163.9"/>
</g>
<g>
	<defs>
		<rect id="SVGID_1_" y="-0.4" width="1866.5" height="1223.8"/>
	</defs>
	<clipPath id="SVGID_2_">
		<use xlink:href="#SVGID_1_"  style="overflow:visible;"/>
	</clipPath>
	<g id="additional" class="st2">
		<rect y="-0.4" class="st3" width="1866.5" height="1223.8"/>
		<path id="Path_1484" class="st4" d="M0.4,654c-39.3-189.2,163.7-313.3,360.4-326.8c163.6-11.3,259.6,92.8,389.9,53.5
			c214.3-64.6,181.9-291.1,384.5-362.7c331.3-117,740.4,366.5,602.3,751.7C1492.6,1452.8,115.6,1207.8,0.4,654"/>
	</g>
</g>
</svg>
