<svg xmlns="http://www.w3.org/2000/svg" width="361" height="242.87" viewBox="0 0 361 242.87"><defs><style>.a{fill:#007c9b;}</style></defs><path class="a" d="M-6762.5-4134.129h-358.508c-.852-.88-1.69-1.764-2.491-2.628v-125.371c.645-.458,1.358-.953,2.12-1.469a136.247,136.247,0,0,1,25.029-13.2,172.841,172.841,0,0,1,28.411-8.717,181.852,181.852,0,0,1,29.714-3.922c1.893-.091,3.8-.138,5.682-.138a123.323,123.323,0,0,1,26.739,3.007,237.235,237.235,0,0,1,23.211,6.617l.5.165.6.2,1.28.421.234.077.213.07.012,0,.01,0c13.6,4.469,26.437,8.689,40.453,8.689a68.534,68.534,0,0,0,17.311-2.215,96.268,96.268,0,0,0,22.285-8.664,90.713,90.713,0,0,0,17.1-12.1c10.054-8.955,17.93-19.606,25.546-29.907l.005-.006h0l.006-.008,0-.006c7.261-9.819,14.77-19.974,24.146-28.626a91.809,91.809,0,0,1,15.808-11.814,92.072,92.072,0,0,1,20.291-8.823,104.387,104.387,0,0,1,30.374-4.507c1.347,0,2.663.024,3.91.071v242.8Z" transform="translate(7123.5 4377)"/></svg>