<svg id="Layer_1" data-name="Layer 1" xmlns="http://www.w3.org/2000/svg" viewBox="0 0 362 50"><defs><style>.cls-1{fill:#fff;}</style></defs><title>logo</title><path d="M63.41,6.31H59V.08H75.6V6.31H71.23V23.81H63.41Z"/><path d="M76.49.08h7.58V8.15h4.23V.08H95.9V23.81H88.29V15H84.07v8.79H76.49Z"/><polygon points="104.36 17.59 104.36 14.85 108.35 14.85 108.35 8.94 104.36 8.94 104.36 6.31 111.01 6.31 111.01 0.08 96.79 0.08 96.79 23.81 111.01 23.81 111.01 17.59 104.36 17.59"/><path d="M177,48a1.93,1.93,0,0,1,.16-.77,2.06,2.06,0,0,1,.42-.63,2.08,2.08,0,0,1,.63-.42A1.93,1.93,0,0,1,179,46a2,2,0,0,1,.77.16,2,2,0,0,1,1.05,1.05,2,2,0,0,1,0,1.54,2,2,0,0,1-.42.63,2,2,0,0,1-.63.42A1.94,1.94,0,0,1,179,50a1.9,1.9,0,0,1-.77-.16,2.08,2.08,0,0,1-.63-.42,2,2,0,0,1-.42-.63A1.92,1.92,0,0,1,177,48Zm.26,0a1.64,1.64,0,0,0,.14.67,1.74,1.74,0,0,0,.37.54,1.78,1.78,0,0,0,.54.37,1.71,1.71,0,0,0,1.89-.37,1.73,1.73,0,0,0,.37-.54,1.78,1.78,0,0,0,0-1.34,1.75,1.75,0,0,0-.91-.91,1.73,1.73,0,0,0-1.34,0,1.72,1.72,0,0,0-.91.91A1.64,1.64,0,0,0,177.3,48Zm1-1.06H179a1.08,1.08,0,0,1,.67.2.68.68,0,0,1,.27.59.75.75,0,0,1,0,.27.87.87,0,0,1-.1.18.73.73,0,0,1-.15.14l.4.72h-.69l-.33-.6h-.11v.6h-.64Zm.64,1.06H179a.3.3,0,0,0,.2-.06.22.22,0,0,0,.09-.19.22.22,0,0,0-.09-.2.31.31,0,0,0-.2-.06h-.09Z"/><path d="M59.35,42a10.88,10.88,0,0,0,1.63.39,12.19,12.19,0,0,0,1.62.28,14.8,14.8,0,0,0,1.83.11c1.09,0,1.64-.4,1.64-1.21a1.38,1.38,0,0,0-.5-.94,15.86,15.86,0,0,0-1.26-1.07c-.51-.39-1.06-.82-1.64-1.3A11.42,11.42,0,0,1,61,36.65a8.44,8.44,0,0,1-1.26-2.08,6.62,6.62,0,0,1-.5-2.65,6.78,6.78,0,0,1,.61-3,6,6,0,0,1,1.67-2.14,7.51,7.51,0,0,1,2.51-1.3,10.23,10.23,0,0,1,3.08-.45,16.45,16.45,0,0,1,1.7.09l1.53.16,1.53.21V32.2l-.64-.07-.64-.07c-.23,0-.48,0-.75,0l-.53,0a3,3,0,0,0-.6.09,1.23,1.23,0,0,0-.5.25.61.61,0,0,0-.21.5c0,.19.16.42.48.71s.71.62,1.18,1,1,.82,1.52,1.32a10.74,10.74,0,0,1,1.53,1.71,9.89,9.89,0,0,1,1.18,2.17,7.28,7.28,0,0,1,.48,2.7,8.54,8.54,0,0,1-.5,2.94,6.21,6.21,0,0,1-1.54,2.39,7.38,7.38,0,0,1-2.69,1.6,11.56,11.56,0,0,1-3.87.58,22.73,22.73,0,0,1-2.51-.13c-.77-.08-1.45-.18-2-.3a17.87,17.87,0,0,1-1.88-.42Z"/><path d="M73.62,37.55a12.88,12.88,0,0,1,1-5.15,12,12,0,0,1,2.71-3.94,11.63,11.63,0,0,1,4-2.5,13.28,13.28,0,0,1,4.84-.88,15,15,0,0,1,3.61.39,17.57,17.57,0,0,1,2.72.89,12.54,12.54,0,0,1,2.27,1.25L91,34.2a11.75,11.75,0,0,0-1.25-.82,12,12,0,0,0-1.44-.56,6.4,6.4,0,0,0-1.9-.26A5.16,5.16,0,0,0,82.78,34a4.94,4.94,0,0,0-1.08,1.59,4.83,4.83,0,0,0-.39,1.94,4.7,4.7,0,0,0,.41,1.94,5.07,5.07,0,0,0,1.12,1.58,5.4,5.4,0,0,0,1.67,1.06,5.5,5.5,0,0,0,2.1.39,6.53,6.53,0,0,0,2-.29,6.91,6.91,0,0,0,1.49-.64,5.56,5.56,0,0,0,1.25-.92l3.73,6.58a10.9,10.9,0,0,1-2.28,1.38,19.38,19.38,0,0,1-2.74.93,15.36,15.36,0,0,1-8.78-.48,12.13,12.13,0,0,1-4.06-2.55,11.59,11.59,0,0,1-2.66-3.94A13,13,0,0,1,73.62,37.55Z"/><path d="M98.94,25.66h5.68l9,23.74h-7.47l-.78-2.13H98.19l-.78,2.13H89.94ZM103.38,42l-1.6-4.16L100.19,42Z"/><path d="M112,25.66h7.89V43.17h6.54v6.22H112Z"/><polygon points="134.98 43.17 134.98 40.43 138.97 40.43 138.97 34.52 134.98 34.52 134.98 31.89 141.63 31.89 141.63 25.66 127.41 25.66 127.41 49.39 141.63 49.39 141.63 43.17 134.98 43.17"/><path d="M176.76,39.79a8.39,8.39,0,0,0-1.17-2.17,10.59,10.59,0,0,0-1.53-1.71c-.55-.5-1.06-.93-1.53-1.32s-.85-.71-1.18-1-.48-.52-.48-.71a.61.61,0,0,1,.21-.5,1.25,1.25,0,0,1,.5-.25,3,3,0,0,1,.61-.09l.54,0c.26,0,.51,0,.75,0l.64.07.64.07V25.55l-1.52-.21-1.53-.16a16.65,16.65,0,0,0-1.71-.09,10.19,10.19,0,0,0-3.08.45,7.48,7.48,0,0,0-2.5,1.3A5.91,5.91,0,0,0,162.75,29a6.78,6.78,0,0,0-.61,3,6.63,6.63,0,0,0,.5,2.65,8.47,8.47,0,0,0,1.26,2.08,11.36,11.36,0,0,0,1.64,1.64c.58.47,1.1.92,1.63,1.3.84.59,2,1.53,2,2.72a1.32,1.32,0,0,1-.94,1.26,5.18,5.18,0,0,1-2.13.42,13,13,0,0,1-1.51-.09c-.51-.06-.94-.18-1.46-.27A21.3,21.3,0,0,1,158,41.56h.09a9.58,9.58,0,0,0,1.6-1.56,9.53,9.53,0,0,0,1.1-2.07,8.14,8.14,0,0,0,.5-3,9.37,9.37,0,0,0-.8-4,8.22,8.22,0,0,0-2.22-2.9,9.74,9.74,0,0,0-3.36-1.77,14,14,0,0,0-4.21-.61h-8.18V49.39h7.57v-6a23.46,23.46,0,0,0,3.47,2.72c.76.47,1.59.94,2.52,1.41a21.32,21.32,0,0,0,3,1.23,26,26,0,0,0,3.56.87,23,23,0,0,0,4,.34,17.46,17.46,0,0,0,4.85-.55,9.65,9.65,0,0,0,3.21-1.51,6,6,0,0,0,1.87-2.27A7.26,7.26,0,0,0,176.76,39.79Zm-26.71-7.72h.38a4.15,4.15,0,0,1,2.29.6,2.23,2.23,0,0,1,.95,2,2.23,2.23,0,0,1-.95,2,4.19,4.19,0,0,1-2.29.61h-.38Z"/><path d="M27.65,0,0,36.25,5.68,49.94l11.15-9.61H38.47l11.14,9.61L55.3,36.25ZM44.09,26.46H36.47l-5-16.55Zm-10.74,0H22L27.65,7.62ZM23.86,9.89l-5,16.57H11.22ZM6.86,45,3.42,36.7l4.77-6.27,6.07,8.18ZM17,37.34l-5.86-7.9H19l3.37,7.9Zm8.58,0-3.37-7.9H33.09l-3.39,7.9Zm12.67,0H32.94l3.39-7.9h7.8ZM48.45,45l-7.39-6.39,6.06-8.18,4.78,6.27Z"/><path class="cls-1" d="M244.41,6.31H240V.08H256.6V6.31h-4.37V23.81h-7.82Z"/><path class="cls-1" d="M257.49.08h7.58V8.15h4.23V.08h7.61V23.81h-7.61V15h-4.23v8.79h-7.58Z"/><polygon class="cls-1" points="285.36 17.59 285.36 14.85 289.35 14.85 289.35 8.94 285.36 8.94 285.36 6.31 292.01 6.31 292.01 0.08 277.79 0.08 277.79 23.81 292.01 23.81 292.01 17.59 285.36 17.59"/><path class="cls-1" d="M358,48a1.93,1.93,0,0,1,.16-.77,2.06,2.06,0,0,1,.42-.63,2.08,2.08,0,0,1,.63-.42A1.93,1.93,0,0,1,360,46a2,2,0,0,1,.77.16,2,2,0,0,1,1.05,1.05,2,2,0,0,1,0,1.54,2,2,0,0,1-.42.63,2,2,0,0,1-.63.42A1.94,1.94,0,0,1,360,50a1.9,1.9,0,0,1-.77-.16,2.08,2.08,0,0,1-.63-.42,2,2,0,0,1-.42-.63A1.92,1.92,0,0,1,358,48Zm.26,0a1.64,1.64,0,0,0,.14.67,1.74,1.74,0,0,0,.37.54,1.78,1.78,0,0,0,.54.37,1.71,1.71,0,0,0,1.89-.37,1.73,1.73,0,0,0,.37-.54,1.78,1.78,0,0,0,0-1.34,1.75,1.75,0,0,0-.91-.91,1.73,1.73,0,0,0-1.34,0,1.72,1.72,0,0,0-.91.91A1.64,1.64,0,0,0,358.3,48Zm1-1.06H360a1.08,1.08,0,0,1,.67.2.68.68,0,0,1,.27.59.75.75,0,0,1,0,.27.87.87,0,0,1-.1.18.73.73,0,0,1-.15.14l.4.72h-.69l-.33-.6h-.11v.6h-.64Zm.64,1.06H360a.3.3,0,0,0,.2-.06.22.22,0,0,0,.09-.19.22.22,0,0,0-.09-.2.31.31,0,0,0-.2-.06h-.09Z"/><path class="cls-1" d="M240.35,42a10.88,10.88,0,0,0,1.63.39,12.19,12.19,0,0,0,1.62.28,14.8,14.8,0,0,0,1.83.11c1.09,0,1.64-.4,1.64-1.21a1.38,1.38,0,0,0-.5-.94,15.86,15.86,0,0,0-1.26-1.07c-.51-.39-1.06-.82-1.64-1.3A11.42,11.42,0,0,1,242,36.65a8.44,8.44,0,0,1-1.26-2.08,6.62,6.62,0,0,1-.5-2.65,6.78,6.78,0,0,1,.61-3,6,6,0,0,1,1.67-2.14,7.51,7.51,0,0,1,2.51-1.3,10.23,10.23,0,0,1,3.08-.45,16.45,16.45,0,0,1,1.7.09l1.53.16,1.53.21V32.2l-.64-.07-.64-.07c-.23,0-.48,0-.75,0l-.53,0a3,3,0,0,0-.6.09,1.23,1.23,0,0,0-.5.25.61.61,0,0,0-.21.5c0,.19.16.42.48.71s.71.62,1.18,1,1,.82,1.52,1.32a10.74,10.74,0,0,1,1.53,1.71,9.89,9.89,0,0,1,1.18,2.17,7.28,7.28,0,0,1,.48,2.7,8.54,8.54,0,0,1-.5,2.94,6.21,6.21,0,0,1-1.54,2.39,7.38,7.38,0,0,1-2.69,1.6,11.56,11.56,0,0,1-3.87.58,22.73,22.73,0,0,1-2.51-.13c-.77-.08-1.45-.18-2-.3a17.87,17.87,0,0,1-1.88-.42Z"/><path class="cls-1" d="M254.62,37.55a12.88,12.88,0,0,1,1-5.15,12,12,0,0,1,2.71-3.94,11.63,11.63,0,0,1,4-2.5,13.28,13.28,0,0,1,4.84-.88,15,15,0,0,1,3.61.39,17.57,17.57,0,0,1,2.72.89,12.54,12.54,0,0,1,2.27,1.25L272,34.2a11.75,11.75,0,0,0-1.25-.82,12,12,0,0,0-1.44-.56,6.4,6.4,0,0,0-1.9-.26A5.16,5.16,0,0,0,263.78,34a4.94,4.94,0,0,0-1.08,1.59,4.83,4.83,0,0,0-.39,1.94,4.7,4.7,0,0,0,.41,1.94,5.07,5.07,0,0,0,1.12,1.58,5.4,5.4,0,0,0,1.67,1.06,5.5,5.5,0,0,0,2.1.39,6.53,6.53,0,0,0,2-.29,6.91,6.91,0,0,0,1.49-.64,5.56,5.56,0,0,0,1.25-.92l3.73,6.58a10.9,10.9,0,0,1-2.28,1.38,19.38,19.38,0,0,1-2.74.93,15.36,15.36,0,0,1-8.78-.48,12.13,12.13,0,0,1-4.06-2.55,11.59,11.59,0,0,1-2.66-3.94A13,13,0,0,1,254.62,37.55Z"/><path class="cls-1" d="M279.94,25.66h5.68l9,23.74h-7.47l-.78-2.13h-7.18l-.78,2.13h-7.46ZM284.38,42l-1.6-4.16L281.19,42Z"/><path class="cls-1" d="M293,25.66h7.89V43.17h6.54v6.22H293Z"/><polygon class="cls-1" points="315.98 43.17 315.98 40.43 319.97 40.43 319.97 34.52 315.98 34.52 315.98 31.89 322.63 31.89 322.63 25.66 308.41 25.66 308.41 49.39 322.63 49.39 322.63 43.17 315.98 43.17"/><path class="cls-1" d="M357.76,39.79a8.39,8.39,0,0,0-1.17-2.17,10.59,10.59,0,0,0-1.53-1.71c-.55-.5-1.06-.93-1.53-1.32s-.85-.71-1.18-1-.48-.52-.48-.71a.61.61,0,0,1,.21-.5,1.25,1.25,0,0,1,.5-.25,3,3,0,0,1,.61-.09l.54,0c.26,0,.51,0,.75,0l.64.07.64.07V25.55l-1.52-.21-1.53-.16a16.65,16.65,0,0,0-1.71-.09,10.19,10.19,0,0,0-3.08.45,7.48,7.48,0,0,0-2.5,1.3A5.91,5.91,0,0,0,343.75,29a6.78,6.78,0,0,0-.61,3,6.63,6.63,0,0,0,.5,2.65,8.47,8.47,0,0,0,1.26,2.08,11.36,11.36,0,0,0,1.64,1.64c.58.47,1.1.92,1.63,1.3.84.59,2,1.53,2,2.72a1.32,1.32,0,0,1-.94,1.26,5.18,5.18,0,0,1-2.13.42,13,13,0,0,1-1.51-.09c-.51-.06-.94-.18-1.46-.27A21.3,21.3,0,0,1,339,41.56h.09a9.58,9.58,0,0,0,1.6-1.56,9.53,9.53,0,0,0,1.1-2.07,8.14,8.14,0,0,0,.5-3,9.37,9.37,0,0,0-.8-4,8.22,8.22,0,0,0-2.22-2.9,9.74,9.74,0,0,0-3.36-1.77,14,14,0,0,0-4.21-.61h-8.18V49.39h7.57v-6a23.46,23.46,0,0,0,3.47,2.72c.76.47,1.59.94,2.52,1.41a21.32,21.32,0,0,0,3,1.23,26,26,0,0,0,3.56.87,23,23,0,0,0,4,.34,17.46,17.46,0,0,0,4.85-.55,9.65,9.65,0,0,0,3.21-1.51,6,6,0,0,0,1.87-2.27A7.26,7.26,0,0,0,357.76,39.79Zm-26.71-7.72h.38a4.15,4.15,0,0,1,2.29.6,2.23,2.23,0,0,1,.95,2,2.23,2.23,0,0,1-.95,2,4.19,4.19,0,0,1-2.29.61h-.38Z"/><path class="cls-1" d="M208.65,0,181,36.25l5.68,13.69,11.15-9.61h21.64l11.14,9.61,5.68-13.69Zm16.44,26.46h-7.63l-5-16.55Zm-10.74,0H203l5.67-18.84ZM204.86,9.89l-5,16.57h-7.65ZM187.86,45l-3.45-8.3,4.77-6.27,6.07,8.18ZM198,37.34l-5.86-7.9H200l3.37,7.9Zm8.58,0-3.37-7.9h10.86l-3.39,7.9Zm12.67,0h-5.33l3.39-7.9h7.8ZM229.45,45l-7.39-6.39,6.06-8.18,4.78,6.27Z"/></svg>