<svg xmlns="http://www.w3.org/2000/svg" width="505.209" height="645.679" viewBox="0 0 505.209 645.679"><defs><style>.a{fill:#f9d027;}</style></defs><path class="a" d="M-3361.6-3272.04h-.033a638.9,638.9,0,0,1-104.593-8.843,669.354,669.354,0,0,1-104.278-26.1v-610.736a159.672,159.672,0,0,1,42.321,11.432,150.319,150.319,0,0,1,38.031,23.548,144.614,144.614,0,0,1,13.19,12.675,136.039,136.039,0,0,1,10.715,13.311,145.389,145.389,0,0,1,15.419,28.167,222.906,222.906,0,0,1,9.763,29.626c2.625,10.036,4.816,20.366,6.935,30.356v.008c2.222,10.479,4.52,21.314,7.327,31.845a213.921,213.921,0,0,0,10.593,31.027,142.658,142.658,0,0,0,17.123,29.377,138.258,138.258,0,0,0,12.03,13.81,151.773,151.773,0,0,0,14.886,13.084,98.435,98.435,0,0,0,20.992,12.468,108.555,108.555,0,0,0,21.681,6.774c14.706,3.042,29.837,3.557,45.855,4.1h.013c14.173.483,28.829.982,44.145,3.29a184.892,184.892,0,0,1,23.466,5.042,167.11,167.11,0,0,1,24.493,9.1,260.881,260.881,0,0,1,39.279,22.547,254.722,254.722,0,0,1,34.769,28.991,213.021,213.021,0,0,1,27.751,33.913,159.742,159.742,0,0,1,18.225,37.311,117.4,117.4,0,0,1,5.95,44.819,105.77,105.77,0,0,1-4.079,22.617,112.514,112.514,0,0,1-9.4,22.378,182.514,182.514,0,0,1-20.392,29.568,201.959,201.959,0,0,1-25.86,25.431,237.4,237.4,0,0,1-30.727,21.353A287.4,287.4,0,0,1-3191-3302.414c-24.2,10.057-51.24,17.749-80.376,22.861A524.084,524.084,0,0,1-3361.6-3272.04Z" transform="translate(3570.5 3917.719)"/></svg>