<svg xmlns="http://www.w3.org/2000/svg" width="93.402" height="73.464" viewBox="0 0 93.402 73.464"><defs><style>.a{opacity:0.995;}.a,.b{isolation:isolate;}</style></defs><g class="a" transform="translate(-248.442 42.648)"><g class="b" transform="translate(248.442 -42.648)"><path d="M282.4,30.816H248.442V6.53q0-14.74,2.6-23.261a35.46,35.46,0,0,1,9.606-15.286,48.945,48.945,0,0,1,17.882-10.631l6.647,14.016q-10.148,3.385-14.561,9.423t-4.652,16.07H282.4Zm56.669,0H305.113V6.53q0-14.863,2.6-23.321a35.308,35.308,0,0,1,9.668-15.226A49.666,49.666,0,0,1,335.2-42.648l6.644,14.016q-10.148,3.385-14.558,9.423t-4.652,16.07h16.432Z" transform="translate(-248.442 42.648)"/></g></g></svg>