<svg id="Layer_1-2" xmlns="http://www.w3.org/2000/svg" width="12.283" height="11.739" viewBox="0 0 12.283 11.739">
  <path id="Path_21" data-name="Path 21" d="M47.219,41.636V37.094c0-2.432-1.3-3.564-3.031-3.564a2.616,2.616,0,0,0-2.373,1.309v.026H41.8c.005-.009.013-.017.017-.026V33.715H39.18c.036.743,0,7.921,0,7.921h2.634V37.213a1.8,1.8,0,0,1,.087-.641,1.441,1.441,0,0,1,1.35-.964c.954,0,1.333.727,1.333,1.792v4.238h2.633Z" transform="translate(-34.936 -29.898)" fill="#7fa3cb"/>
  <rect id="Rectangle_30" data-name="Rectangle 30" width="2.632" height="7.921" transform="translate(0.156 3.817)" fill="#7fa3cb"/>
  <path id="Path_22" data-name="Path 22" d="M1.491,0A1.374,1.374,0,0,0,0,1.368,1.354,1.354,0,0,0,1.456,2.736h.016A1.372,1.372,0,1,0,1.491,0Z" fill="#7fa3cb"/>
</svg>
