<svg xmlns="http://www.w3.org/2000/svg" width="13.009" height="10.571" viewBox="0 0 13.009 10.571">
  <g id="Layer_1-2" transform="translate(0)">
    <path id="Path_23" data-name="Path 23" d="M13.028,1.253a5.263,5.263,0,0,1-1.533.419A2.678,2.678,0,0,0,12.67.194a5.274,5.274,0,0,1-1.7.647A2.672,2.672,0,0,0,6.426,3.278,7.574,7.574,0,0,1,.925.489a2.672,2.672,0,0,0,.828,3.563A2.638,2.638,0,0,1,.544,3.719a.174.174,0,0,0,0,.034A2.67,2.67,0,0,0,2.684,6.369a2.638,2.638,0,0,1-.7.093,2.563,2.563,0,0,1-.5-.048A2.672,2.672,0,0,0,3.973,8.268,5.357,5.357,0,0,1,.02,9.372a7.533,7.533,0,0,0,4.091,1.2,7.541,7.541,0,0,0,7.594-7.592c0-.117,0-.233-.007-.347a5.427,5.427,0,0,0,1.33-1.379Z" transform="translate(-0.02 0)" fill="#7fa3cb"/>
  </g>
</svg>
