<svg xmlns="http://www.w3.org/2000/svg" width="12.652" height="8.598" viewBox="0 0 12.652 8.598">
  <g id="Layer_1-2" transform="translate(0)">
    <path id="Path_25" data-name="Path 25" d="M12.389,1.343A1.559,1.559,0,0,0,11.27.258,38.791,38.791,0,0,0,6.326,0,38.929,38.929,0,0,0,1.383.257,1.56,1.56,0,0,0,.264,1.343,15.52,15.52,0,0,0,0,4.3,15.52,15.52,0,0,0,.264,7.256,1.557,1.557,0,0,0,1.383,8.341,38.929,38.929,0,0,0,6.326,8.6a38.929,38.929,0,0,0,4.943-.257,1.557,1.557,0,0,0,1.118-1.085A15.52,15.52,0,0,0,12.652,4.3a15.526,15.526,0,0,0-.264-2.956Zm-7.328,4.8V2.457L8.348,4.3,5.061,6.142Z" transform="translate(0)" fill="#7fa3cb"/>
  </g>
</svg>
