<svg id="Layer_1-2" xmlns="http://www.w3.org/2000/svg" width="25.145" height="24.032" viewBox="0 0 25.145 24.032">
  <path id="Path_21" data-name="Path 21" d="M55.636,50.124v-9.3c0-4.978-2.659-7.3-6.2-7.3a5.355,5.355,0,0,0-4.859,2.679v.053h-.035c.011-.018.027-.035.035-.053v-2.3H39.18c.073,1.521,0,16.215,0,16.215h5.393V41.07a3.677,3.677,0,0,1,.177-1.313,2.95,2.95,0,0,1,2.763-1.974c1.954,0,2.73,1.488,2.73,3.668v8.675h5.391Z" transform="translate(-30.492 -26.095)" fill="#fff"/>
  <rect id="Rectangle_30" data-name="Rectangle 30" width="5.389" height="16.215" transform="translate(0.319 7.815)" fill="#fff"/>
  <path id="Path_22" data-name="Path 22" d="M3.051,0A2.813,2.813,0,0,0,0,2.8,2.772,2.772,0,0,0,2.98,5.6h.033A2.81,2.81,0,1,0,3.051,0Z" fill="#fff"/>
</svg>
