<svg xmlns="http://www.w3.org/2000/svg" width="140.305" height="30.207" viewBox="0 0 140.305 30.207"><g fill="#fff"><path d="M3.778 22.705c-.178-3.6-.178-4.545-.208-7.733.412 0 .8.029 1.329.029 3.513 0 6.818-.62 8.53-3.481a6.366 6.366 0 0 0 .885-3.305 5.8 5.8 0 0 0-4.133-5.816 16.261 16.261 0 0 0-4.87-.444l-1.948.057c-.53 0-2.743.057-3.216.057L0 2.277c.265 4.487.265 9.178.265 13.752 0 3.452-.029 4.9-.09 6.758l.175.208c1.536-.09 1.622-.09 3.248-.09l.175-.208ZM3.542 12.58c0-1.329-.029-2.657-.029-3.986s.029-2.775.029-4.133A26.052 26.052 0 0 1 6.2 4.344c1.239 0 3.481.029 4.455 2.066a4.5 4.5 0 0 1 .355 1.83 4.333 4.333 0 0 1-.5 2.124 4.734 4.734 0 0 1-3.954 2.095c-.8.09-2.005.09-3.012.118Zm26.443 2.425a8.839 8.839 0 0 0-1.8-5.7A6.924 6.924 0 0 0 22.9 7.18a7.378 7.378 0 0 0-5.49 2.066c-1.977 1.977-2.038 4.87-2.038 5.991 0 .974.029 3.986 2.038 6.02a7.113 7.113 0 0 0 5.282 1.977 6.868 6.868 0 0 0 5.107-1.8 7.038 7.038 0 0 0 1.919-3.57 12.675 12.675 0 0 0 .265-2.861Zm-3.216.118a9.054 9.054 0 0 1-.68 3.925 3.589 3.589 0 0 1-3.363 1.977 3.945 3.945 0 0 1-1.74-.383c-2.331-1.182-2.36-4.161-2.36-5.343a7.842 7.842 0 0 1 .885-4.161 3.658 3.658 0 0 1 3.248-1.712 3.442 3.442 0 0 1 3.158 1.679 9.258 9.258 0 0 1 .856 4.014Zm11.746-1.5c-1.83-.562-3.04-.945-3.04-2.213A1.935 1.935 0 0 1 37.1 9.633a4.793 4.793 0 0 1 1.268-.147 6.537 6.537 0 0 1 3.807 1.182l.265-.118c.09-1.121.118-1.239.236-2.331l-.147-.208a11.231 11.231 0 0 0-4.251-.827c-3.305 0-5.963 1.5-5.963 4.544s2.657 3.9 3.868 4.279l.945.326c1.8.591 3.069 1.031 3.069 2.392 0 .913-.856 2.213-3.187 2.213a6.158 6.158 0 0 1-4.1-1.418l-.294.09c-.057 1.182-.057 1.329-.175 2.478l.147.265c.147.057.294.118.444.175a10.838 10.838 0 0 0 4.043.738 7.281 7.281 0 0 0 4.724-1.418 4.4 4.4 0 0 0 1.654-3.481c0-3.13-2.686-4.043-3.868-4.426l-1.064-.326Zm14.876 6.782a4.033 4.033 0 0 1-1.418.265c-1.475 0-1.74-.68-1.74-2.833 0-.412 0-2.095-.029-2.449l.057-5.49c1.565 0 1.74.029 3.216.057l.147-.175a20.538 20.538 0 0 1 .09-2.095l-.147-.18c-1.683.057-2.038.057-3.277.09 0-2.156.029-2.539.118-4.487l-.208-.143c-1.357.412-1.683.5-3.012.827L47.041 4c.029.562.061 1.121.09 1.683 0 .62 0 1.268.029 1.887-.974.029-1.357 0-2.005 0l-.175.175c0 .945 0 1.182-.057 2.124l.118.175c1.064-.029 1.092-.057 2.124-.057l-.057 6.493c0 3.481 0 4.19.53 5.046.917 1.536 2.775 1.536 3.484 1.536a8.049 8.049 0 0 0 2.213-.265l.147-.175c.029-.856.029-1.064.118-2.038l-.208-.175Zm16-.118c-3.807.147-4.724.147-9.178.147-.029-2.8-.057-3.631 0-7.055 4.014 0 4.752 0 8.176.09l.175-.208a20.7 20.7 0 0 1 .147-2.274l-.147-.208c-3.6.057-4.724.09-8.351.057 0-2.714 0-3.57.09-6.285 3.749.029 5.017.029 8.824.147l.175-.208c.057-1.064.118-1.418.208-2.3l-.175-.208c-5.429.057-6.582.057-12.394.09l-.175.208c.208 3.395.208 6.228.208 11.187 0 5.4-.09 6.994-.175 9.325l.147.208c5.608-.057 6.521-.09 12.276-.09l.208-.208c.057-1 .057-1.21.147-2.213l-.175-.208Zm15.55-12.839c-1.357.09-1.683.09-3.04.118l-.175.208a61.1 61.1 0 0 1 .208 6.847c0 1.712 0 3.069-.029 4.663a5.88 5.88 0 0 1-3.689 1.536c-2.979 0-3.04-2.657-3.069-3.9-.029-1.418 0-2.005 0-2.8l.118-6.464-.179-.208c-1.386.118-1.651.118-3.04.147l-.146.21c.09 1.594.09 2.066.147 6.285v1.83c.029 2.3.029 4.809 1.919 6.346a5.51 5.51 0 0 0 3.366 1 7.534 7.534 0 0 0 4.634-1.683l-.029 1.239.175.175c1.357-.057 1.594-.09 3.012-.118l.118-.175a17.707 17.707 0 0 1-.057-1.239c-.061-1.268-.147-3.452-.147-7.083 0-2.392.029-4.487.09-6.729l-.175-.208Zm11.42 3.04c.208-1.3.265-1.594.562-3.012l-.118-.175a3.135 3.135 0 0 0-.827-.09 3.666 3.666 0 0 0-3.6 2.833l.147-2.51-.175-.175c-1.239.236-1.948.383-3.069.591l-.175.208a63.763 63.763 0 0 1 .265 7.646c0 2.743-.029 4.781-.061 7.023l.147.175c1.418-.057 1.74-.09 3.13-.09l.147-.208c-.118-1.654-.208-3.395-.208-6.729 0-3.069 0-4.369 1.21-5.225a2.215 2.215 0 0 1 1.239-.383 3.052 3.052 0 0 1 1.182.265l.208-.147Zm15.7 4.516a8.839 8.839 0 0 0-1.8-5.7 6.924 6.924 0 0 0-5.282-2.124 7.378 7.378 0 0 0-5.49 2.066c-1.977 1.977-2.038 4.87-2.038 5.991 0 .974.029 3.986 2.038 6.02a7.12 7.12 0 0 0 5.282 1.977 6.868 6.868 0 0 0 5.107-1.8 7.038 7.038 0 0 0 1.919-3.57 12.675 12.675 0 0 0 .265-2.861Zm-3.216.118a9.1 9.1 0 0 1-.677 3.925 3.59 3.59 0 0 1-3.366 1.977 3.945 3.945 0 0 1-1.74-.383c-2.331-1.182-2.36-4.161-2.36-5.343a7.842 7.842 0 0 1 .885-4.161 3.658 3.658 0 0 1 3.248-1.712 3.442 3.442 0 0 1 3.165 1.68 9.257 9.257 0 0 1 .856 4.014Zm9.207-7.585-.208-.175c-1.329.265-1.651.355-3.1.591l-.147.175a89.2 89.2 0 0 1 .383 10.006c0 1.74.029 3.481.029 5.225 0 3.012-.057 4.87-.118 6.672l.147.175c1.031-.029 2.066-.061 3.1-.09l.175-.175c-.147-2.775-.208-3.542-.236-7.083.412.029.766.057 1.329.057 6.228 0 9.268-3.925 9.268-8.5 0-4.161-2.625-7.23-6.374-7.23a6.622 6.622 0 0 0-4.308 1.594l.057-1.239Zm0 13.1a306.659 306.659 0 0 1-.057-5.193c0-1.5.029-3.012.057-4.544a5.778 5.778 0 0 1 3.395-1.239c2.36 0 3.986 1.887 3.986 4.96 0 3.631-2.242 6.109-6.138 6.109-.5 0-.856-.057-1.239-.09Z" data-name="Path 1"/><path d="M135.736 9.139a4.57 4.57 0 1 0-4.57-4.57 4.571 4.571 0 0 0 4.57 4.57Z" data-name="Path 2"/></g></svg>
