<svg id="Layer_1-2" xmlns="http://www.w3.org/2000/svg" width="186.977" height="40.255" viewBox="0 0 186.977 40.255">
  <path id="Path_1" data-name="Path 1" d="M5.035,33.1C4.8,28.3,4.8,27.045,4.758,22.8c.549,0,1.064.038,1.771.038,4.682,0,9.087-.826,11.368-4.639a8.483,8.483,0,0,0,1.179-4.4,7.723,7.723,0,0,0-5.507-7.75,21.67,21.67,0,0,0-6.49-.592l-2.6.076C3.775,5.526.826,5.6.2,5.6L0,5.88c.353,5.98.353,12.232.353,18.326,0,4.6-.038,6.529-.119,9.005l.234.277c2.047-.119,2.162-.119,4.329-.119l.234-.277h0ZM4.72,19.61c0-1.771-.038-3.541-.038-5.312s.038-3.7.038-5.507a34.718,34.718,0,0,1,3.541-.157c1.651,0,4.639.038,5.937,2.754a6,6,0,0,1,.472,2.439A5.775,5.775,0,0,1,14,16.656c-1.374,2.439-4.209,2.715-5.269,2.792-1.064.119-2.673.119-4.014.157h0Zm35.239,3.226c-.081-2.754-.592-5.507-2.4-7.593a9.228,9.228,0,0,0-7.039-2.83A9.832,9.832,0,0,0,23.2,15.167c-2.634,2.634-2.715,6.49-2.715,7.984,0,1.3.038,5.312,2.715,8.022a9.48,9.48,0,0,0,7.039,2.634,9.153,9.153,0,0,0,6.805-2.4,9.38,9.38,0,0,0,2.558-4.758,16.891,16.891,0,0,0,.353-3.813Zm-4.286.157a12.066,12.066,0,0,1-.907,5.231,4.782,4.782,0,0,1-4.481,2.634,5.257,5.257,0,0,1-2.319-.511c-3.107-1.575-3.145-5.546-3.145-7.12,0-1.651.119-3.932,1.179-5.546A4.875,4.875,0,0,1,30.328,15.4a4.586,4.586,0,0,1,4.209,2.243,12.337,12.337,0,0,1,1.141,5.35h0Zm15.653-2c-2.439-.749-4.052-1.26-4.052-2.949a2.578,2.578,0,0,1,2.162-2.358,6.388,6.388,0,0,1,1.689-.2A8.712,8.712,0,0,1,56.2,17.061l.353-.157c.119-1.494.157-1.651.315-3.107l-.2-.277a14.967,14.967,0,0,0-5.665-1.1c-4.4,0-7.946,2-7.946,6.056s3.541,5.192,5.154,5.7l1.26.434c2.4.787,4.09,1.374,4.09,3.188,0,1.217-1.141,2.949-4.247,2.949a8.207,8.207,0,0,1-5.469-1.89l-.391.119c-.076,1.575-.076,1.771-.234,3.3l.2.353c.2.076.391.157.592.234a14.443,14.443,0,0,0,5.388.983,9.7,9.7,0,0,0,6.295-1.89,5.861,5.861,0,0,0,2.2-4.639c0-4.171-3.579-5.388-5.154-5.9l-1.417-.434Zm19.824,9.048a5.375,5.375,0,0,1-1.89.353c-1.966,0-2.319-.907-2.319-3.775,0-.549,0-2.792-.038-3.264l.076-7.316c2.086,0,2.319.038,4.286.076l.2-.234a27.37,27.37,0,0,1,.119-2.792l-.2-.234c-2.243.076-2.715.076-4.367.119,0-2.873.038-3.384.157-5.98L66.9,6.8c-1.809.549-2.243.668-4.014,1.1l-.2.277c.038.749.081,1.494.119,2.243,0,.826,0,1.689.038,2.515-1.3.038-1.809,0-2.673,0l-.234.234c0,1.26,0,1.575-.076,2.83l.157.234c1.417-.038,1.456-.076,2.83-.076l-.076,8.652c0,4.639,0,5.584.706,6.724,1.222,2.047,3.7,2.047,4.644,2.047a10.727,10.727,0,0,0,2.949-.353l.2-.234c.038-1.141.038-1.417.157-2.715l-.277-.234h0ZM92.47,29.88c-5.073.2-6.295.2-12.232.2-.038-3.737-.076-4.839,0-9.4,5.35,0,6.333,0,10.9.119l.234-.277a27.593,27.593,0,0,1,.2-3.03l-.2-.277c-4.8.076-6.295.119-11.129.076,0-3.617,0-4.758.119-8.376,5,.038,6.686.038,11.759.2l.234-.277c.076-1.417.157-1.89.277-3.069l-.234-.277c-7.235.076-8.772.076-16.517.119l-.234.277c.277,4.524.277,8.3.277,14.909,0,7.2-.119,9.32-.234,12.427l.2.277c7.474-.076,8.69-.119,16.36-.119l.277-.277c.076-1.336.076-1.613.2-2.949l-.234-.277h0ZM113.2,12.771c-1.809.119-2.243.119-4.052.157l-.234.277a81.43,81.43,0,0,1,.277,9.125c0,2.281,0,4.09-.038,6.214a7.836,7.836,0,0,1-4.916,2.047c-3.971,0-4.052-3.541-4.09-5.192-.038-1.89,0-2.673,0-3.737l.157-8.614-.239-.277c-1.847.157-2.2.157-4.052.2l-.2.277c.119,2.124.119,2.754.2,8.376v2.439c.038,3.069.038,6.409,2.558,8.457a7.343,7.343,0,0,0,4.486,1.336,10.04,10.04,0,0,0,6.175-2.243l-.038,1.651.234.234c1.809-.076,2.124-.119,4.014-.157l.158-.234c-.038-.549-.076-1.1-.076-1.651-.081-1.689-.2-4.6-.2-9.44,0-3.188.038-5.98.119-8.967l-.234-.277h0Zm15.219,4.052c.277-1.732.353-2.124.749-4.014l-.157-.234a4.178,4.178,0,0,0-1.1-.119c-3.345,0-4.329,2.515-4.8,3.775l.2-3.345-.234-.234c-1.651.315-2.6.511-4.09.787l-.234.277A84.973,84.973,0,0,1,119.1,23.9c0,3.656-.038,6.371-.081,9.359l.2.234c1.89-.076,2.319-.119,4.171-.119l.2-.277c-.157-2.2-.277-4.524-.277-8.967,0-4.09,0-5.822,1.613-6.963a2.952,2.952,0,0,1,1.651-.511,4.067,4.067,0,0,1,1.575.353l.277-.2h0Zm20.927,6.018c-.081-2.754-.592-5.507-2.4-7.593a9.228,9.228,0,0,0-7.039-2.83,9.832,9.832,0,0,0-7.316,2.754c-2.634,2.634-2.715,6.49-2.715,7.984,0,1.3.038,5.312,2.715,8.022a9.488,9.488,0,0,0,7.039,2.634,9.153,9.153,0,0,0,6.805-2.4,9.379,9.379,0,0,0,2.558-4.758,16.892,16.892,0,0,0,.353-3.813ZM145.056,23a12.12,12.12,0,0,1-.9,5.231,4.785,4.785,0,0,1-4.486,2.634,5.257,5.257,0,0,1-2.319-.511c-3.107-1.575-3.145-5.545-3.145-7.12,0-1.651.119-3.932,1.179-5.546a4.875,4.875,0,0,1,4.329-2.281,4.586,4.586,0,0,1,4.209,2.243A12.337,12.337,0,0,1,145.061,23h0Zm12.27-10.108-.277-.234c-1.771.353-2.2.472-4.128.787l-.2.234a118.865,118.865,0,0,1,.511,13.334c0,2.319.038,4.639.038,6.963,0,4.014-.076,6.49-.157,8.891l.2.234c1.374-.038,2.754-.081,4.128-.119l.234-.234c-.2-3.7-.277-4.72-.315-9.44.549.038,1.021.076,1.771.076,8.3,0,12.351-5.231,12.351-11.33,0-5.546-3.5-9.635-8.495-9.635a8.824,8.824,0,0,0-5.741,2.124l.076-1.651h0Zm0,17.462c-.038-2.281-.076-4.6-.076-6.92,0-2,.038-4.014.076-6.056a7.7,7.7,0,0,1,4.524-1.651c3.145,0,5.312,2.515,5.312,6.61,0,4.839-2.988,8.142-8.18,8.142-.668,0-1.141-.076-1.651-.119h0Z" transform="translate(0 -2.844)"/>
  <path id="Path_2" data-name="Path 2" d="M372.36,12.169a6.09,6.09,0,1,0-6.09-6.09,6.091,6.091,0,0,0,6.09,6.09Z" transform="translate(-191.472 0.01)" fill="#004997"/>
</svg>
