<svg id="Layer_1-2" xmlns="http://www.w3.org/2000/svg" width="25.143" height="20.43" viewBox="0 0 25.143 20.43">
  <path id="Path_23" data-name="Path 23" d="M25.16,2.422a10.173,10.173,0,0,1-2.963.809A5.176,5.176,0,0,0,24.468.375a10.194,10.194,0,0,1-3.28,1.251A5.165,5.165,0,0,0,12.4,6.336,14.638,14.638,0,0,1,1.77.945a5.165,5.165,0,0,0,1.6,6.885,5.1,5.1,0,0,1-2.337-.643.336.336,0,0,0,0,.067,5.16,5.16,0,0,0,4.14,5.056,5.1,5.1,0,0,1-1.357.18,4.953,4.953,0,0,1-.969-.093A5.165,5.165,0,0,0,7.659,15.98,10.354,10.354,0,0,1,.02,18.113,14.56,14.56,0,0,0,7.928,20.43,14.574,14.574,0,0,0,22.606,5.757c0-.226,0-.45-.013-.67a10.489,10.489,0,0,0,2.57-2.665Z" transform="translate(-0.02 0)" fill="#fff"/>
</svg>
