<svg id="Layer_1-2" xmlns="http://www.w3.org/2000/svg" width="25.9" height="17.601" viewBox="0 0 25.9 17.601">
  <path id="Path_25" data-name="Path 25" d="M25.361,2.75A3.191,3.191,0,0,0,23.072.528C21.051,0,12.95,0,12.95,0S4.85,0,2.83.526A3.194,3.194,0,0,0,.541,2.75,31.772,31.772,0,0,0,0,8.8a31.772,31.772,0,0,0,.541,6.052A3.187,3.187,0,0,0,2.83,17.075c2.019.526,10.12.526,10.12.526s8.1,0,10.12-.526a3.187,3.187,0,0,0,2.289-2.222A31.772,31.772,0,0,0,25.9,8.8a31.784,31.784,0,0,0-.541-6.052Zm-15,9.822V5.029L17.09,8.8l-6.73,3.772Z" transform="translate(0)" fill="#fff"/>
</svg>
